<svg width="24" height="24" viewBox="0 0 24 24" fill="none" xmlns="http://www.w3.org/2000/svg">
<path id="heart" d="M6.28 2.18182C9.516 2.18291 11.253 5.99018 12 7.67018C12.75 5.98255 14.469 2.19273 17.726 2.19273C19.784 2.19273 22 3.62073 22 6.75491C22 10.5098 17.256 15.3196 12 20.9367C6.742 15.3175 2 10.5087 2 6.75491C2 3.83564 3.965 2.18073 6.28 2.18182ZM6.281 0C3.098 0 0 2.38582 0 6.75491C0 11.8396 5.57 17.0389 12 24C18.43 17.0389 24 11.8396 24 6.75491C24 2.37927 20.903 0.0109091 17.726 0.0109091C15.522 0.0109091 13.28 1.14764 12 3.54327C10.715 1.13673 8.478 0 6.281 0Z" fill="black"/>
</svg>
